<svg xmlns="http://www.w3.org/2000/svg" width="346.667" height="346.667" preserveAspectRatio="xMidYMid meet" version="1.0" viewBox="0 0 260 260"><metadata>Created by potrace 1.11, written by Peter Selinger 2001-2013</metadata><g fill="#000" stroke="none"><path d="M80 1710 l0 -200 205 0 205 0 0 -410 0 -410 200 0 200 0 2 297 3 297 200 163 c110 89 202 162 205 162 3 0 95 -73 205 -162 l200 -163 3 -297 2 -297 200 0 200 0 0 410 0 410 205 0 205 0 0 200 0 200 -1220 0 -1220 0 0 -200z" transform="translate(0.000000,260.000000) scale(0.100000,-0.100000)"/><path d="M1140 850 l0 -160 160 0 160 0 0 160 0 160 -160 0 -160 0 0 -160z" transform="translate(0.000000,260.000000) scale(0.100000,-0.100000)"/></g></svg>